<?xml version="1.0"?>
<svg width="640" height="480" xmlns="http://www.w3.org/2000/svg" xmlns:svg="http://www.w3.org/2000/svg">
 <!-- Created with SVG-edit - https://github.com/SVG-Edit/svgedit-->
 <g class="layer">
  <title>Layer 1</title>
  <path d="m158.65249,280.175623l111.999998,-195.999996l111.999998,195.999996l-223.999996,0z" fill="#ff00ff" id="svg_1" stroke="#000000" stroke-width="2"/>
  <line fill="none" id="svg_3" stroke="#000000" x1="77.5" x2="77.5" y1="172.5" y2="336.5"/>
  <path d="m471.879762,112.735847c-3.243122,2.69253 -7.842292,3.661349 -11.996925,4.156994c-3.543832,-0.356226 -9.102379,2.506249 -5.472708,6.408825c2.590615,5.443261 8.178081,0.9639 11.934082,0.678264c2.310139,0.622673 3.09732,8.714394 5.032807,3.367819c1.31596,-4.430814 7.202996,-3.041328 10.326107,-1.509911c4.854221,1.505519 2.900518,7.578664 5.691128,10.949259c4.193752,4.403872 -0.574328,10.019212 -4.265388,12.938107c-4.36944,2.59709 -6.358678,6.772716 -5.751526,11.752436c0.016928,5.049444 -1.367347,10.536558 1.319143,15.141018c4.060199,0.539732 0.562224,-6.813372 1.686747,-9.390499c0.415284,-4.612185 -0.660335,-10.381105 3.736044,-13.460736c3.934055,-3.430006 8.075396,-6.698295 12.496182,-9.464718c4.183522,-0.213782 3.560682,6.089087 4.789222,9.045349c0.983459,4.523591 1.414106,9.450472 1.266566,13.87835c1.070638,3.645438 1.889424,8.248435 -0.483815,10.817021c4.423174,0.461597 8.474681,-4.416647 4.851391,-8.326772c-1.459922,-5.461635 -1.956554,-11.15046 -3.043147,-16.702121c-0.444786,-3.952275 -1.150711,-8.682384 1.657378,-11.943311c4.13121,-0.1418 8.334991,4.161154 12.882218,1.574297c3.992843,-2.567284 11.380269,-2.239953 10.833267,4.05077c-1.101198,5.096353 0.531872,10.146287 0.765583,15.010184c-1.172919,6.314835 -7.591128,9.374565 -10.107696,14.930172c2.391877,3.303797 6.036548,-1.429005 8.446789,-2.944923c-0.596618,-4.451888 3.990773,-6.826727 5.384148,-10.594006c2.393296,-5.129428 -1.097906,-11.050386 -0.944597,-15.885486c-2.043983,-4.134931 2.083311,-5.132402 3.794382,-1.359385c2.750772,3.474208 7.205634,5.759049 8.153054,10.426795c2.534349,3.560257 3.725341,7.706141 5.359381,11.661256c1.399034,2.128469 3.662678,6.175762 4.390171,1.216649c1.320616,-2.972112 0.489441,-4.956609 -2.163504,-5.195489c-4.515177,-5.011716 -3.712164,-12.851188 -8.814403,-17.529126c-3.734937,-2.361937 -7.560154,-4.924291 -8.857308,-9.543712c-2.299895,-3.762839 -3.076698,-8.340147 -1.929673,-12.624967c1.495495,-0.722031 2.457863,2.171586 1.324768,-1.053796c-2.426501,-4.047402 -7.448273,-5.625906 -11.754341,-6.893929c-4.749696,-1.478114 -9.691244,-1.919858 -14.613253,-1.197895c-4.197518,1.076449 -8.758775,2.129268 -12.910541,0.194527c-3.700807,-2.211215 -7.998276,-1.795486 -11.777792,-0.123067c-2.84984,1.571135 -8.548279,-0.059038 -4.588854,-3.322544c-1.595021,-1.390267 -7.286875,2.583211 -3.063745,-0.811122c2.022601,-2.064272 2.991017,-6.366154 2.248141,-8.601064c-0.800447,2.753126 -1.953837,2.638186 -1.850813,-0.271644c-0.698772,5.188442 -4.157628,1.843878 -3.616485,0.343269c0.228767,2.097868 -0.879242,4.400216 -1.961296,1.107012c-0.124571,2.129617 0.985922,5.193256 -1.294948,6.06827c3.478508,3.194506 -4.539443,0.830582 -4.522714,-1.7019c-2.118907,-3.220421 -2.441983,-1.479615 -1.578501,1.102785c-1.573745,-1.145504 -3.589166,-3.312509 -1.837129,0.050592c2.003484,4.567016 7.440986,2.721596 10.832393,3.582108l0.00001,-0.000007z" fill="#007f3f" id="svg_4" stroke="#000000" stroke-dasharray="null" stroke-linecap="null" stroke-linejoin="null" stroke-width="2"/>
  <path d="m359.29321,390.708506c3.809903,-2.969352 12.113943,1.835987 11.816173,-5.908083c3.77389,-2.659292 6.680498,-8.487301 0.57832,-10.438256c-3.477301,-1.668031 -5.109426,3.689034 -6.319658,4.026821c-2.511482,-3.499533 -1.094403,-9.203863 -0.105884,-12.90117c3.158713,-1.96513 8.338016,-4.207758 4.682871,-8.586362c-0.757306,-4.779329 -1.220885,-10.354462 -5.735184,-13.243317c-3.36917,-2.023621 -8.126487,-3.952837 -6.473096,-8.703367c-2.175151,-3.280868 -4.69385,-7.766115 -3.249924,-11.81697c3.293242,-0.583609 2.906505,7.739411 3.53431,5.980624c-1.236995,-2.676235 2.956778,-8.838164 2.716831,-3.156786c-0.253148,2.038136 -0.089203,6.16776 1.030516,2.077482c3.035477,-4.509435 0.05833,7.817037 3.037834,2.925321c2.101903,-0.680397 1.461443,3.012421 3.49005,1.186534c2.220851,1.696644 3.847228,2.07599 3.839691,4.895566c2.959413,1.069849 5.167232,2.839544 4.580943,5.652387c5.775585,-1.393555 0.837884,5.80971 4.948483,7.818423c2.215769,3.512682 3.211796,7.031913 3.052119,11.203489c4.560732,-1.260402 7.568604,-6.447535 12.278831,-8.061483c5.288257,-2.450757 7.182974,-8.543451 8.331512,-13.806124c0.512793,-2.539217 3.73168,-2.414895 2.742886,0.437424c3.704126,-3.992038 2.158124,-9.804083 3.204159,-14.658691c0.335376,-2.715316 -0.753092,-8.70119 1.53317,-9.260162c3.411232,3.061955 -0.757668,9.831239 2.567539,11.863117c2.344082,-4.373783 1.513214,-9.605264 1.640158,-14.378926c-0.057296,-2.755453 2.676823,-4.579551 2.544648,-0.646388c1.146623,3.394993 -0.130751,10.403944 0.532658,11.639482c2.606449,-4.029899 2.049308,-9.456905 4.812892,-13.242487c3.802251,1.426263 -1.077622,7.826879 -0.954153,11.217526c0.509677,2.603901 4.236254,-7.625674 4.423898,-1.985802c-1.716932,1.490595 -1.429621,5.594804 0.488762,2.288865c0.740993,-2.714909 5.809565,-1.804581 2.538513,0.673374c-2.428993,2.109701 4.261603,1.961368 1.332575,4.280744c1.954193,3.227505 -3.362696,5.136146 -0.320364,7.462516c-0.174982,0.936961 2.428234,2.760939 1.277558,5.010714c1.147137,2.071779 -4.08406,3.416889 -0.670632,4.834333c0.19744,4.831517 -5.908629,8.163276 -4.570632,12.674054c-0.394409,5.436096 -4.496058,9.997991 -8.885589,12.871152c-4.055192,0.76897 -7.200757,2.397645 -10.686379,4.644836c-2.295191,0.039453 -3.110006,0.02871 -4.310258,1.685255c-1.889131,-1.465499 -5.004204,-3.680141 -4.470312,0.75812c0.808484,5.511772 7.801212,6.0597 11.520521,8.991902c3.966877,1.400185 9.155195,6.054114 4.859197,9.697405c-0.41565,5.178908 -7.307222,2.076949 -9.097056,3.868614c-2.567991,0.383902 -2.300444,2.196559 -4.581889,0.03509c-2.221988,2.977925 -7.19238,-0.245431 -9.562149,-1.536974c-3.843879,1.834079 -5.601268,-7.384528 -6.308079,-0.931604c-1.561492,4.386073 -7.903427,-0.327694 -7.872244,5.280368c-2.901519,-0.596183 -3.03807,3.938736 -6.150136,3.483185c1.957364,-0.90883 3.288722,-6.105804 -0.225026,-3.60039c-2.873656,-2.182939 -1.214246,5.371757 -3.583763,1.438213c-0.521224,-5.106826 5.278644,-5.207605 8.546942,-6.125021c1.173767,-2.968061 2.659815,-6.869889 2.348435,-9.732233c-3.089324,1.241787 -5.798505,3.903904 -9.402734,4.130019c0.224367,2.697605 -1.865678,7.05647 -5.079189,4.546605c4.619972,1.801207 2.578614,-8.090283 -0.213318,-3.202319c-1.094432,3.224951 -0.958828,-4.659199 -4.12421,-2.364263c-1.659061,1.206671 -0.532658,4.000853 -2.180856,0.759592c-0.320558,-0.653473 -0.37074,-1.581435 0.299721,-2.051982l0,0.000006z" fill="#00ffff" id="svg_5" stroke="#000000" stroke-dasharray="null" stroke-linecap="null" stroke-linejoin="null" stroke-width="2"/>
  <polygon cx="143.5" cy="315.5" edge="41.144731" fill="#007f3f" id="svg_6" orient="x" points="212.5 377 177.621 423.787 121.185 405.916 121.185 348.084 177.621 330.213 212.5 377" shape="regularPoly" sides="8" stroke="#000000" stroke-width="2" strokeWidth="2" strokecolor="#000000"/>
  <polygon cx="503.5" cy="289.5" edge="75.48657" fill="#007f3f" id="svg_9" orient="x" points="602.1279296875,264.0000007080216 581.2950405961892,315.70928485052355 530.999995683902,337.12796162112136 480.7049287631198,315.70928485052355 459.87203967180903,264.0000007080216 480.7049287631198,212.29072787918903 530.999995683902,190.87203979492188 581.2950405961892,212.29072787918903 602.1279296875,264.0000007080216 " shape="regularPoly" sides="8" stroke="#000000" stroke-width="2" strokeWidth="2" strokecolor="#000000"/>
 </g>
</svg>